<svg id="visual" viewBox="0 0 1884 540" width="1884" height="540" xmlns="http://www.w3.org/2000/svg" xmlns:xlink="http://www.w3.org/1999/xlink" version="1.1"><path d="M0 443L314 378L628 438L942 410L1256 440L1570 377L1884 425L1884 541L1570 541L1256 541L942 541L628 541L314 541L0 541Z" fill="#cacaca"></path><path d="M0 453L314 455L628 425L942 442L1256 461L1570 434L1884 459L1884 541L1570 541L1256 541L942 541L628 541L314 541L0 541Z" fill="#969799"></path><path d="M0 489L314 486L628 487L942 503L1256 498L1570 471L1884 498L1884 541L1570 541L1256 541L942 541L628 541L314 541L0 541Z" fill="#66676b"></path></svg>